# xmcd CD database file
#
# Track frame offsets:
#	150
#	20429
#	35644
#	53285
#	71887
#	87153
#	105828
#	121065
#	136365
#	151427
#	171661
#	188680
#	203185
#	219657
#	233573
#	250821
#	264198
#	281631
#
# Disc length: 3904 seconds
#
# Revision: 0
# Processed by: cddbd v1.5.1PL0 Copyright (c) Steve Scherf et al.
# Submitted via: CDex 1.51
#
DISCID=f50f3e12
DTITLE=Various Artist - Promo Only Canada February 2004 Country Radio
DYEAR=2004
DGENRE=Country
TTITLE0=Alan Jackson - Remember When
TTITLE1=Sonya Isaacs - No Regrets Yet
TTITLE2=Toby Keith - Whiskey Girl
TTITLE3=Craig Young Feat. Terri Clark - You Can't Take It With You
TTITLE4=Chad Brock - You Are
TTITLE5=Jason McCoy - Still
TTITLE6=Rachel Proctor - Didn't I
TTITLE7=Pat Green - Guy Like Me
TTITLE8=Clay Walker - I Can't Sleep
TTITLE9=Novovan Chapman - There Is No War
TTITLE10=Reba McEntire - Somebody
TTITLE11=Billy Currington - I Got A Feelin'
TTITLE12=Mindy Smith - Jolene
TTITLE13=Bobby Carlson - Paper Plates and Dixie Cups
TTITLE14=Anthony Michael James - Old Friends
TTITLE15=Chris McDaniel - Imagine Me
TTITLE16=Erica Dawson - Strength Of A Heart
TTITLE17=Shane Sellers - There's A Song On The Jukebox
EXTD=YEAR: 2004
EXTT0=
EXTT1=
EXTT2=
EXTT3=
EXTT4=
EXTT5=
EXTT6=
EXTT7=
EXTT8=
EXTT9=
EXTT10=
EXTT11=
EXTT12=
EXTT13=
EXTT14=
EXTT15=
EXTT16=
EXTT17=
PLAYORDER=
